<svg width="1727" height="3162" viewBox="0 0 1727 3162" fill="none" xmlns="http://www.w3.org/2000/svg">
<g opacity="0.44">
<g filter="url(#filter0_f_2001_5)">
<path fill-rule="evenodd" clip-rule="evenodd" d="M1023.7 1699.45C993.625 1760.87 849.997 1841.23 869.986 1879.04C902.442 1940.43 1123.35 1815.26 1127.24 1895.31C1130.18 1956.05 956.41 1957.15 876.852 2020.49C826.787 2060.35 832.694 2117.28 790.37 2163.5C741.465 2216.91 663.691 2309.72 619.839 2301.17C559.225 2289.35 648.189 2152.87 600.321 2126.45C568.553 2108.91 481.197 2197.47 434.499 2198.88C389.615 2200.24 353.664 2176.63 359.735 2133.7C365.918 2089.97 412.348 2026.35 464.66 1985.57C523.45 1939.74 596.352 1963.93 646.314 1910.31C696.557 1856.39 638.234 1817.53 674.028 1760.88C708.302 1706.63 772.868 1657.9 831.263 1617.57C905.895 1566.03 1010.88 1476.17 1057.54 1496.02C1109.9 1518.3 1061.26 1622.76 1023.7 1699.45Z" stroke="#E54A10" stroke-width="46"/>
</g>
<g filter="url(#filter1_f_2001_5)">
<path fill-rule="evenodd" clip-rule="evenodd" d="M830.005 681.044C881.71 764.592 822.141 979.973 900.946 992.243C1028.9 1012.17 1118.25 679.533 1238.19 744.598C1329.22 793.976 1118.8 971.682 1112.9 1107.22C1109.19 1192.51 1198.34 1235.59 1213.23 1318.5C1230.43 1414.29 1269.13 1573.43 1203.32 1610.66C1112.37 1662.13 1024.47 1453.95 928.048 1479.86C864.06 1497.06 884.947 1662.28 830.005 1710.99C777.197 1757.81 699.372 1774.03 644.986 1730.84C589.595 1686.85 554.67 1584.76 559.799 1496.39C565.563 1397.08 689.304 1343.77 673.085 1246.72C656.775 1149.12 529.705 1174.95 491.832 1089.69C455.567 1008.05 464.197 900.359 477.395 806.188C494.262 685.833 493.015 501.568 578.507 471.226C674.449 437.176 765.439 576.715 830.005 681.044Z" stroke="#E54A10" stroke-width="82"/>
</g>
<g filter="url(#filter2_f_2001_5)">
<path fill-rule="evenodd" clip-rule="evenodd" d="M423.587 1902.09C470.277 1836.29 697.413 2160.8 830.685 2227.22C903.925 2263.73 870.947 2123.59 944.685 2161.81C1012.96 2197.2 1071.03 2301.36 1116.02 2375.14C1151.85 2433.87 1135.87 2475.22 1171.66 2533.95C1212.06 2600.24 1321.66 2671.22 1328.81 2724.32C1335.89 2776.86 1252.91 2746.17 1198.07 2729.99C1158.21 2718.22 1089.77 2635.62 1064.46 2646.29C1015.7 2666.85 1098.59 2839.33 1017.25 2806.21C947.823 2777.95 958.316 2656.2 898.422 2578.7C857.364 2525.57 782.931 2511.2 747.632 2457.33C713.998 2406 775.951 2397.38 746.159 2346.33C658.282 2195.76 374.937 1970.64 423.587 1902.09Z" fill="#FF9D00" fill-opacity="0.53"/>
<path fill-rule="evenodd" clip-rule="evenodd" d="M423.587 1902.09C470.277 1836.29 697.413 2160.8 830.685 2227.22C903.925 2263.73 870.947 2123.59 944.685 2161.81C1012.96 2197.2 1071.03 2301.36 1116.02 2375.14C1151.85 2433.87 1135.87 2475.22 1171.66 2533.95C1212.06 2600.24 1321.66 2671.22 1328.81 2724.32C1335.89 2776.86 1252.91 2746.17 1198.07 2729.99C1158.21 2718.22 1089.77 2635.62 1064.46 2646.29C1015.7 2666.85 1098.59 2839.33 1017.25 2806.21C947.823 2777.95 958.316 2656.2 898.422 2578.7C857.364 2525.57 782.931 2511.2 747.632 2457.33C713.998 2406 775.951 2397.38 746.159 2346.33C658.282 2195.76 374.937 1970.64 423.587 1902.09Z" stroke="#EE2E15" stroke-width="158"/>
</g>
</g>
<defs>
<filter id="filter0_f_2001_5" x="36.0657" y="1170.21" width="1414.21" height="1454.52" filterUnits="userSpaceOnUse" color-interpolation-filters="sRGB">
<feFlood flood-opacity="0" result="BackgroundImageFix"/>
<feBlend mode="normal" in="SourceGraphic" in2="BackgroundImageFix" result="shape"/>
<feGaussianBlur stdDeviation="150" result="effect1_foregroundBlur_2001_5"/>
</filter>
<filter id="filter1_f_2001_5" x="0.29364" y="0.178528" width="1726.41" height="2221.64" filterUnits="userSpaceOnUse" color-interpolation-filters="sRGB">
<feFlood flood-opacity="0" result="BackgroundImageFix"/>
<feBlend mode="normal" in="SourceGraphic" in2="BackgroundImageFix" result="shape"/>
<feGaussianBlur stdDeviation="212.35" result="effect1_foregroundBlur_2001_5"/>
</filter>
<filter id="filter2_f_2001_5" x="66.7413" y="1542.03" width="1613.79" height="1619.7" filterUnits="userSpaceOnUse" color-interpolation-filters="sRGB">
<feFlood flood-opacity="0" result="BackgroundImageFix"/>
<feBlend mode="normal" in="SourceGraphic" in2="BackgroundImageFix" result="shape"/>
<feGaussianBlur stdDeviation="136.15" result="effect1_foregroundBlur_2001_5"/>
</filter>
</defs>
</svg>
