<svg width="724" height="724" viewBox="0 0 724 724" fill="none" xmlns="http://www.w3.org/2000/svg">
<path fill-rule="evenodd" clip-rule="evenodd" d="M362 0C162.073 0 0 162.073 0 362C0 561.927 162.073 724 362 724C561.927 724 724 561.927 724 362C724 162.073 561.927 0 362 0ZM43 362C43 185.821 185.821 43 362 43C451.198 43 531.846 79.6097 589.736 138.623C595.891 144.897 593.124 156.48 586.017 161.65C576.584 168.505 564.6 177.757 550.065 189.407L499.386 229.498C423.244 287.893 343.736 329.715 260.861 354.964C253.235 357.395 246.035 358.158 239.259 357.254C208.371 353.133 226.156 319.404 292.614 256.065L323.424 225.797C345.905 203.241 358.148 186.722 360.155 176.24C362.707 163.194 357.168 148.46 343.539 132.039C337.561 125.157 330.952 119.204 323.712 114.182C316.671 109.186 309.962 106.263 303.586 105.412C297.408 104.588 279.392 116.484 249.539 141.099C231.536 155.937 210.637 175.763 186.841 200.578C140.632 248.972 107.688 291.429 88.0098 327.949C67.6938 366.208 67.4122 400.245 87.1649 430.058C93.3949 439.611 101.345 447.669 111.017 454.232C120.714 460.597 131.242 464.537 142.601 466.052C180.663 471.13 242.321 451.366 327.575 406.762L384.053 375.659C410.904 360.306 435.585 385.883 414.639 408.642C397.58 427.053 365.819 459.121 319.357 504.845L228.599 592.221C211.806 608.641 203.156 618.743 202.651 622.529C201.882 628.297 195.438 634.178 190.534 631.046C101.822 574.392 43 475.065 43 362ZM332.098 673.873C329.992 675.95 331.229 679.549 334.176 679.803C343.345 680.596 352.625 681 362 681C538.179 681 681 538.179 681 362C681 306.116 604.829 304.333 575.727 352.041C559.2 379.132 539.852 408.869 517.683 441.251C502.031 464.313 485.808 487.096 469.014 509.6C425.102 566.616 394.411 605.114 376.939 625.094C359.441 645.273 344.494 661.532 332.098 673.873Z" fill="#FF4400"/>
</svg>
