<svg width="1615" height="1620" viewBox="0 0 1615 1620" fill="none" xmlns="http://www.w3.org/2000/svg">
<g filter="url(#filter0_f_23_2)">
<path fill-rule="evenodd" clip-rule="evenodd" d="M357.587 360.089C404.277 294.295 631.413 618.797 764.685 685.222C837.925 721.725 804.947 581.586 878.685 619.81C946.96 655.203 1005.03 759.362 1050.02 833.135C1085.85 891.872 1069.87 933.218 1105.66 991.952C1146.06 1058.24 1255.66 1129.22 1262.81 1182.32C1269.89 1234.86 1186.91 1204.17 1132.07 1187.99C1092.21 1176.22 1023.77 1093.62 998.46 1104.29C949.698 1124.85 1032.59 1297.33 951.251 1264.21C881.823 1235.95 892.316 1114.2 832.422 1036.7C791.364 983.569 716.931 969.196 681.632 915.326C647.998 863.997 709.951 855.379 680.159 804.331C592.282 653.757 308.937 428.643 357.587 360.089Z" fill="#FF9D00" fill-opacity="0.53"/>
<path fill-rule="evenodd" clip-rule="evenodd" d="M357.587 360.089C404.277 294.295 631.413 618.797 764.685 685.222C837.925 721.725 804.947 581.586 878.685 619.81C946.96 655.203 1005.03 759.362 1050.02 833.135C1085.85 891.872 1069.87 933.218 1105.66 991.952C1146.06 1058.24 1255.66 1129.22 1262.81 1182.32C1269.89 1234.86 1186.91 1204.17 1132.07 1187.99C1092.21 1176.22 1023.77 1093.62 998.46 1104.29C949.698 1124.85 1032.59 1297.33 951.251 1264.21C881.823 1235.95 892.316 1114.2 832.422 1036.7C791.364 983.569 716.931 969.196 681.632 915.326C647.998 863.997 709.951 855.379 680.159 804.331C592.282 653.757 308.937 428.643 357.587 360.089Z" stroke="#EE2E15" stroke-width="158"/>
</g>
<defs>
<filter id="filter0_f_23_2" x="0.741188" y="0.0337524" width="1613.79" height="1619.7" filterUnits="userSpaceOnUse" color-interpolation-filters="sRGB">
<feFlood flood-opacity="0" result="BackgroundImageFix"/>
<feBlend mode="normal" in="SourceGraphic" in2="BackgroundImageFix" result="shape"/>
<feGaussianBlur stdDeviation="136.15" result="effect1_foregroundBlur_23_2"/>
</filter>
</defs>
</svg>
